<?xml version="1.0" encoding="UTF-8" standalone="no"?> <svg width="64" height="64" viewBox="0 0 64 64" fill="none" xmlns="http://www.w3.org/2000/svg">
<path d="M49.53 30.49L17.09 2.48996C16.8004 2.23888 16.4447 2.07633 16.0652 2.02166C15.6858 1.967 15.2987 2.02252 14.9499 2.18162C14.6012 2.34072 14.3055 2.5967 14.0981 2.91907C13.8907 3.24144 13.7803 3.61663 13.78 3.99996V60C13.7803 60.3833 13.8907 60.7585 14.0981 61.0809C14.3055 61.4032 14.6012 61.6592 14.9499 61.8183C15.2987 61.9774 15.6858 62.0329 16.0652 61.9783C16.4447 61.9236 16.8004 61.761 17.09 61.51L49.53 33.51C49.7462 33.3222 49.9195 33.0903 50.0383 32.8298C50.1571 32.5692 50.2186 32.2863 50.2186 32C50.2186 31.7137 50.1571 31.4307 50.0383 31.1702C49.9195 30.9097 49.7462 30.6777 49.53 30.49V30.49Z" fill="black"/>
</svg>
